<svg width="32" height="22" fill="none" xmlns="http://www.w3.org/2000/svg"><path d="M24.74 9.517C24.74 3.768 18.682 0 12.633 0 6.558 0 .522 3.786.522 9.517c0 2.168.95 4.288 2.674 5.97a.26.26 0 0 1 .066.254c-.542 1.984-1.824 3.777-2.35 4.455a.68.68 0 0 0-.07.729c.117.233.35.375.61.375h.017c2.576-.064 5.561-.79 7.407-2.605a.263.263 0 0 1 .247-.067c1.134.269 2.315.405 3.509.405 6.072 0 12.109-3.784 12.109-9.517ZM9.337 17.73a1.18 1.18 0 0 0-1.107.307c-1.845 1.815-4.859 2.227-6.285 2.319.651-.9 1.71-2.552 2.208-4.372a1.182 1.182 0 0 0-.312-1.158c-1.567-1.528-2.396-3.364-2.396-5.31 0-4.738 5.019-8.594 11.188-8.594 6.168 0 11.187 3.856 11.187 8.595 0 4.738-5.019 8.594-11.187 8.594-1.123 0-2.232-.128-3.296-.38Z" fill="#674D40"/><path d="M27.707 17.178C30.395 15.819 32 13.504 32 10.984c0-3.562-3.22-6.605-7.655-7.237a.461.461 0 0 0-.13.913c3.977.566 6.863 3.226 6.863 6.324 0 2.165-1.416 4.172-3.787 5.371a1.14 1.14 0 0 0-.601 1.253c.225 1.056.703 2.035 1.086 2.698-2.723-.453-3.755-1.76-4.081-2.325a1.138 1.138 0 0 0-.985-.566H22.672c-.51 0-1.023-.035-1.521-.105a.462.462 0 0 0-.128.913c.54.076 1.095.114 1.65.114h.037c.078 0 .149.04.186.105 1.249 2.164 4.12 2.716 5.296 2.854.26.03.507-.089.646-.31a.663.663 0 0 0-.005-.716c-.354-.552-.986-1.657-1.241-2.854a.217.217 0 0 1 .115-.238ZM5.457 7.867a1.6 1.6 0 0 0-1.599 1.598 1.6 1.6 0 0 0 1.599 1.598 1.6 1.6 0 0 0 1.598-1.598 1.6 1.6 0 0 0-1.598-1.598Zm0 2.274a.677.677 0 1 1 .001-1.353.677.677 0 0 1-.001 1.353ZM10.015 7.867a1.6 1.6 0 0 0-1.598 1.598 1.6 1.6 0 0 0 1.598 1.598 1.6 1.6 0 0 0 1.598-1.598 1.6 1.6 0 0 0-1.598-1.598Zm0 2.274a.677.677 0 1 1 .002-1.353.677.677 0 0 1-.002 1.353ZM14.574 7.867a1.6 1.6 0 0 0-1.598 1.598 1.6 1.6 0 0 0 1.598 1.598 1.6 1.6 0 0 0 1.598-1.598 1.6 1.6 0 0 0-1.598-1.598Zm0 2.274a.677.677 0 1 1 .002-1.353.677.677 0 0 1-.002 1.353ZM19.133 7.867a1.6 1.6 0 0 0-1.598 1.598 1.6 1.6 0 0 0 1.598 1.598 1.6 1.6 0 0 0 1.598-1.598 1.6 1.6 0 0 0-1.598-1.598Zm0 2.274a.677.677 0 1 1 .002-1.353.677.677 0 0 1-.002 1.353Z" fill="#674D40"/></svg>