<svg width="25" height="23" fill="none" xmlns="http://www.w3.org/2000/svg"><path d="M18.002 6.114a.352.352 0 0 1-.352-.351 5.15 5.15 0 0 0-10.298 0 .352.352 0 0 1-.704 0 5.853 5.853 0 0 1 11.705 0 .352.352 0 0 1-.351.351Z" fill="#674D40"/><path d="M19.028 14.074a.352.352 0 0 1-.004-.703 5.114 5.114 0 0 0 5.084-5.048 5.108 5.108 0 0 0-5.146-5.058c-.52 0-1.036.076-1.533.227a.352.352 0 0 1-.206-.672 5.93 5.93 0 0 1 1.739-.258 5.812 5.812 0 0 1 5.849 5.761 5.82 5.82 0 0 1-5.778 5.751h-.005ZM5.972 14.074h-.005A5.82 5.82 0 0 1 .19 8.324a5.813 5.813 0 0 1 5.85-5.762c.589-.001 1.175.086 1.738.258a.352.352 0 1 1-.206.672 5.224 5.224 0 0 0-1.532-.227A5.108 5.108 0 0 0 .893 8.323a5.114 5.114 0 0 0 5.083 5.048.351.351 0 1 1-.004.703Z" fill="#674D40"/><path d="M19.028 22.825H5.972a.352.352 0 0 1-.352-.352v-8.75a.352.352 0 1 1 .703 0v8.398h12.354v-8.398a.351.351 0 1 1 .703 0v8.75a.352.352 0 0 1-.352.352Z" fill="#674D40"/><path d="M21.477 19.416H8.42a.352.352 0 1 1 0-.703h13.057a.352.352 0 0 1 0 .703Z" fill="#674D40"/></svg>