<svg aria-hidden="true" style="position: absolute; width: 0; height: 0; overflow: hidden;" version="1.1" xmlns="http://www.w3.org/2000/svg" xmlns:xlink="http://www.w3.org/1999/xlink">
<defs>
<symbol id="chat" viewBox="0 0 47 32">
<path fill="#674d40" style="fill: var(--color1, #674d40)" d="M35.985 13.843c0-8.362-8.812-13.843-17.61-13.843-8.836 0-17.616 5.507-17.616 13.843 0 3.153 1.382 6.237 3.889 8.684 0.068 0.068 0.11 0.163 0.11 0.267 0 0.037-0.005 0.072-0.015 0.105l0.001-0.003c-0.788 2.886-2.653 5.494-3.418 6.48-0.131 0.166-0.21 0.379-0.21 0.61 0 0.164 0.040 0.32 0.111 0.456l-0.003-0.005c0.17 0.339 0.509 0.545 0.887 0.545h0.025c3.747-0.093 8.089-1.149 10.774-3.789 0.069-0.067 0.163-0.109 0.267-0.109 0.033 0 0.064 0.004 0.095 0.012l-0.003-0.001c1.649 0.391 3.367 0.589 5.104 0.589 8.832 0 17.613-5.504 17.613-13.843zM13.581 25.789c-0.121-0.031-0.261-0.048-0.404-0.048-0.47 0-0.896 0.189-1.206 0.495l0-0c-2.684 2.64-7.068 3.239-9.142 3.373 0.947-1.309 2.487-3.712 3.212-6.359 0.039-0.137 0.062-0.294 0.062-0.457 0-0.481-0.197-0.915-0.515-1.227l-0-0c-2.279-2.223-3.485-4.893-3.485-7.724 0-6.892 7.3-12.5 16.273-12.5 8.972 0 16.272 5.609 16.272 12.502 0 6.892-7.3 12.5-16.272 12.5-1.633 0-3.247-0.186-4.794-0.553z"></path>
<path fill="#674d40" style="fill: var(--color1, #674d40)" d="M40.301 24.986c3.91-1.977 6.244-5.344 6.244-9.009 0-5.181-4.684-9.607-11.135-10.527-0.028-0.004-0.061-0.007-0.095-0.007-0.37 0-0.671 0.3-0.671 0.671 0 0.337 0.249 0.616 0.572 0.664l0.004 0c5.785 0.823 9.983 4.692 9.983 9.199 0 3.149-2.060 6.068-5.508 7.812-0.544 0.279-0.91 0.837-0.91 1.48 0 0.121 0.013 0.24 0.038 0.354l-0.002-0.011c0.327 1.536 1.023 2.96 1.58 3.924-3.961-0.659-5.462-2.56-5.936-3.382-0.292-0.496-0.823-0.823-1.431-0.823-0.001 0-0.001 0-0.002 0h-0.055c-0.742 0-1.488-0.051-2.212-0.153-0.015-0.001-0.031-0.002-0.049-0.002-0.371 0-0.672 0.301-0.672 0.672 0 0.322 0.227 0.592 0.53 0.657l0.004 0.001c0.785 0.111 1.593 0.166 2.4 0.166h0.054c0.113 0 0.217 0.058 0.271 0.153 1.817 3.148 5.993 3.951 7.703 4.151 0.378 0.044 0.737-0.129 0.94-0.451 0.093-0.146 0.149-0.324 0.149-0.515 0-0.196-0.058-0.378-0.159-0.53l0.002 0.004c-0.515-0.803-1.434-2.41-1.805-4.151-0.004-0.019-0.007-0.041-0.007-0.064 0-0.123 0.070-0.229 0.172-0.281l0.002-0.001zM7.937 11.443c-1.284 0.001-2.324 1.041-2.326 2.324v0c0.002 1.284 1.042 2.324 2.326 2.324h0c1.283-0.002 2.323-1.041 2.324-2.324v-0c-0.002-1.283-1.041-2.323-2.324-2.324h-0zM7.937 14.751c-0.011 0-0.024 0.001-0.037 0.001-0.544 0-0.985-0.441-0.985-0.985s0.441-0.985 0.985-0.985c0.014 0 0.027 0 0.040 0.001l-0.002-0c0.527 0.021 0.946 0.454 0.946 0.984s-0.42 0.963-0.946 0.984l-0.002 0zM14.567 11.443c-1.283 0.002-2.323 1.041-2.324 2.324v0c0.002 1.283 1.041 2.323 2.324 2.324h0c1.283-0.002 2.323-1.041 2.324-2.324v-0c-0.002-1.283-1.041-2.323-2.324-2.324h-0zM14.567 14.751c-0.011 0-0.024 0.001-0.036 0.001-0.544 0-0.985-0.441-0.985-0.985s0.441-0.985 0.985-0.985c0.014 0 0.028 0 0.041 0.001l-0.002-0c0.527 0.022 0.945 0.454 0.945 0.984 0 0.531-0.42 0.964-0.947 0.984l-0.002 0zM21.199 11.443c-1.283 0.002-2.323 1.041-2.324 2.324v0c0.002 1.283 1.041 2.323 2.324 2.324h0c1.283-0.002 2.323-1.041 2.324-2.324v-0c-0.002-1.283-1.041-2.323-2.324-2.324h-0zM21.199 14.751c-0.011 0-0.024 0.001-0.036 0.001-0.544 0-0.985-0.441-0.985-0.985s0.441-0.985 0.985-0.985c0.014 0 0.028 0 0.041 0.001l-0.002-0c0.527 0.022 0.945 0.454 0.945 0.984 0 0.531-0.42 0.964-0.947 0.984l-0.002 0zM27.83 11.443c-1.283 0.002-2.323 1.041-2.324 2.324v0c0.002 1.283 1.041 2.323 2.324 2.324h0c1.283-0.002 2.323-1.041 2.324-2.324v-0c-0.002-1.283-1.041-2.323-2.324-2.324h-0zM27.83 14.751c-0.011 0-0.024 0.001-0.036 0.001-0.544 0-0.985-0.441-0.985-0.985s0.441-0.985 0.985-0.985c0.014 0 0.028 0 0.041 0.001l-0.002-0c0.527 0.022 0.945 0.454 0.945 0.984 0 0.531-0.42 0.964-0.947 0.984l-0.002 0z"></path>
</symbol>
<symbol id="chef-hat" viewBox="0 0 35 32">
<path fill="#674d40" style="fill: var(--color1, #674d40)" d="M25.046 8.506c0 0 0 0 0 0-0.27 0-0.489-0.218-0.49-0.488v-0c-0.079-3.896-3.256-7.024-7.164-7.024s-7.085 3.128-7.164 7.017l-0 0.007c0 0.27-0.219 0.49-0.49 0.49s-0.49-0.219-0.49-0.49v0c0.060-4.451 3.683-8.037 8.143-8.037s8.083 3.585 8.143 8.031l0 0.006c-0.001 0.269-0.219 0.488-0.488 0.488h-0z"></path>
<path fill="#674d40" style="fill: var(--color1, #674d40)" d="M26.474 19.581c-0.26-0.013-0.467-0.227-0.467-0.489 0-0.26 0.203-0.473 0.46-0.489l0.001-0c3.88-0.023 7.022-3.148 7.073-7.018l0-0.005c-0.039-3.895-3.206-7.037-7.106-7.037-0.019 0-0.037 0-0.056 0l0.003-0c-0.723 0-1.441 0.106-2.133 0.316-0.035 0.009-0.075 0.014-0.117 0.014-0.27 0-0.49-0.219-0.49-0.49 0-0.209 0.132-0.388 0.317-0.458l0.003-0.001c0.72-0.228 1.548-0.359 2.407-0.359 0.004 0 0.009 0 0.013 0h-0.001c0.015-0 0.034-0 0.052-0 4.441 0 8.046 3.58 8.086 8.012l0 0.004c-0.054 4.41-3.625 7.969-8.036 8.001l-0.003 0h-0.007zM8.309 19.581h-0.007c-4.412-0.033-7.983-3.591-8.037-7.995l-0-0.005c0.040-4.436 3.646-8.017 8.087-8.017 0.018 0 0.036 0 0.055 0h-0.003c0.819-0.001 1.635 0.12 2.418 0.359 0.216 0.054 0.373 0.247 0.373 0.476 0 0.27-0.219 0.49-0.49 0.49-0.061 0-0.119-0.011-0.173-0.032l0.003 0.001c-0.634-0.2-1.363-0.316-2.119-0.316-0.004 0-0.009 0-0.013 0h0.001c-0.016-0-0.035-0-0.055-0-3.901 0-7.067 3.142-7.106 7.034l-0 0.004c0.052 3.875 3.193 6.999 7.070 7.023h0.002c0.269 0.002 0.486 0.22 0.486 0.489 0 0.27-0.219 0.489-0.489 0.489-0.001 0-0.002 0-0.003 0h0z"></path>
<path fill="#674d40" style="fill: var(--color1, #674d40)" d="M26.474 31.757h-18.165c-0.27 0-0.49-0.219-0.49-0.49v-12.174c-0-0.008-0.001-0.017-0.001-0.026 0-0.27 0.219-0.49 0.49-0.49s0.49 0.219 0.49 0.49c0 0.009-0 0.018-0.001 0.027l0-0.001v11.684h17.188v-11.684c0-0.27 0.219-0.489 0.489-0.489s0.489 0.219 0.489 0.489v0 12.174c0 0.27-0.219 0.49-0.49 0.49v0z"></path>
<path fill="#674d40" style="fill: var(--color1, #674d40)" d="M29.881 27.014h-18.166c-0.008 0-0.017 0.001-0.026 0.001-0.27 0-0.49-0.219-0.49-0.49s0.219-0.49 0.49-0.49c0.009 0 0.018 0 0.027 0.001l-0.001-0h18.166c0.259 0.014 0.464 0.228 0.464 0.489s-0.205 0.475-0.462 0.489l-0.001 0z"></path>
</symbol>
<symbol id="clock" viewBox="0 0 32 32">
<path fill="#674d40" style="fill: var(--color1, #674d40)" d="M16 0c-8.823 0-16 7.177-16 16 0 8.822 7.177 16 16 16 8.822 0 16-7.178 16-16 0-8.823-7.178-16-16-16zM16 30.934c-8.234 0-14.934-6.7-14.934-14.934s6.7-14.934 14.934-14.934 14.934 6.7 14.934 14.934-6.7 14.934-14.934 14.934z"></path>
<path fill="#674d40" style="fill: var(--color1, #674d40)" d="M16.534 13.878v-5.409c0-0.295-0.239-0.534-0.534-0.534s-0.534 0.239-0.534 0.534v5.409c-0.747 0.2-1.324 0.777-1.52 1.51l-0.003 0.015h-3.809c-0.008-0-0.017-0.001-0.026-0.001-0.295 0-0.534 0.239-0.534 0.534s0.239 0.534 0.534 0.534c0.009 0 0.018-0 0.027-0.001l-0.001 0h3.809c0.238 0.918 1.066 1.6 2.057 1.6 1.178 0 2.134-0.956 2.134-2.132 0-0.992-0.684-1.819-1.6-2.058zM16 17.002c-0.589-0.001-1.066-0.478-1.066-1.068s0.478-1.068 1.068-1.068c0 0 0.001 0 0.001 0h-0c0.589 0.001 1.066 0.478 1.066 1.068s-0.478 1.068-1.068 1.068c-0 0-0.001 0-0.001 0h0zM16 5.268c0.294 0 0.534-0.238 0.534-0.532v-0.534c0-0.295-0.239-0.534-0.534-0.534s-0.534 0.239-0.534 0.534v0 0.534c0 0.294 0.239 0.532 0.534 0.532zM16 26.602c-0.295 0-0.534 0.239-0.534 0.534v0 0.532c0 0.295 0.239 0.534 0.534 0.534s0.534-0.239 0.534-0.534v-0.532c0-0 0-0.001 0-0.001 0-0.294-0.238-0.532-0.532-0.532-0 0-0.001 0-0.001 0h0zM27.734 15.402h-0.534c-0.008-0-0.017-0.001-0.026-0.001-0.295 0-0.534 0.239-0.534 0.534s0.239 0.534 0.534 0.534c0.009 0 0.018-0 0.027-0.001l-0.001 0h0.534c0.008 0 0.017 0.001 0.026 0.001 0.295 0 0.534-0.239 0.534-0.534s-0.239-0.534-0.534-0.534c-0.009 0-0.018 0-0.027 0.001l0.001-0zM4.8 15.402h-0.534c-0.294 0-0.533 0.239-0.533 0.533s0.239 0.533 0.533 0.533v0h0.534c0.008 0 0.017 0.001 0.026 0.001 0.295 0 0.534-0.239 0.534-0.534s-0.239-0.534-0.534-0.534c-0.009 0-0.018 0-0.027 0.001l0.001-0zM23.919 7.261l-0.378 0.378c-0.096 0.097-0.156 0.23-0.156 0.377 0 0.295 0.239 0.534 0.534 0.534 0.148 0 0.281-0.060 0.378-0.157v0l0.376-0.378c0.096-0.096 0.156-0.23 0.156-0.377 0-0.294-0.239-0.533-0.533-0.533-0.147 0-0.28 0.060-0.377 0.156v0zM7.703 23.478l-0.376 0.378c-0.096 0.096-0.156 0.23-0.156 0.377 0 0.294 0.239 0.533 0.533 0.533 0.147 0 0.28-0.060 0.377-0.156l0.378-0.378c0.096-0.097 0.156-0.23 0.156-0.377 0-0.295-0.239-0.534-0.534-0.534-0.147 0-0.281 0.060-0.378 0.157v0zM24.297 23.478c-0.097-0.097-0.23-0.156-0.378-0.156-0.295 0-0.534 0.239-0.534 0.534 0 0.147 0.060 0.281 0.156 0.378v0l0.378 0.376c0.096 0.097 0.23 0.158 0.378 0.158s0.281-0.060 0.378-0.158l0-0c0.097-0.096 0.157-0.23 0.157-0.378s-0.060-0.281-0.157-0.378l-0-0-0.378-0.376zM8.081 7.261c-0.097-0.097-0.23-0.156-0.378-0.156-0.295 0-0.534 0.239-0.534 0.534 0 0.147 0.060 0.281 0.156 0.378v0l0.378 0.376c0.096 0.097 0.23 0.157 0.378 0.157s0.281-0.060 0.378-0.157l0-0c0.097-0.096 0.157-0.23 0.157-0.378s-0.060-0.281-0.157-0.378l-0-0-0.378-0.376z"></path>
</symbol>
<symbol id="people" viewBox="0 0 35 32">
<path fill="#674d40" style="fill: var(--color1, #674d40)" d="M11.847 0c-3.683 0.006-6.667 2.99-6.673 6.673v0.001c0.005 3.684 2.99 6.669 6.673 6.675h0.001c3.684-0.005 6.669-2.991 6.675-6.674v-0c-0.006-3.684-2.991-6.668-6.674-6.673h-0.001zM11.847 12.229c-3.070-0.004-5.558-2.492-5.56-5.562v-0c0.007-3.067 2.491-5.552 5.558-5.56h0.001c3.070 0.002 5.559 2.49 5.563 5.56v0c-0.005 3.069-2.491 5.556-5.559 5.563h-0.001zM25.516 2.771c-2.766 0.002-5.007 2.244-5.009 5.009v0c0.003 2.765 2.244 5.006 5.009 5.008h0c2.765-0.003 5.005-2.243 5.008-5.008v-0c-0.002-2.765-2.243-5.006-5.008-5.009h-0zM25.516 11.683c-2.151-0.002-3.895-1.745-3.897-3.896v-0c0.002-2.152 1.745-3.896 3.897-3.897h0c2.151 0.002 3.895 1.746 3.896 3.897v0c-0.002 2.151-1.745 3.894-3.896 3.896h-0z"></path>
<path fill="#674d40" style="fill: var(--color1, #674d40)" d="M34.476 20.131c-0.505-3.043-2.396-5.609-5.616-6.953 0 0-1.427 1.079-3.344 1.044-2.096-0.040-3.344-1.044-3.344-1.044s-1.556 0.58-2.812 1.788c-1.16-1.031-3.119-1.869-3.119-1.869s-1.795 1.364-4.4 1.344c-2.737-0.020-4.389-1.344-4.389-1.344s-5.916 2.033-7.165 8.933c0 0-1.337 3.657 1.76 9.123h19.607s1.392-2.423 1.637-3.896h9.752c2.395-3.631 1.433-7.125 1.433-7.125zM20.964 30.040h-18.227c-2.381-4.524-1.352-7.827-1.352-7.827 0.598-3.509 2.855-6.387 5.921-7.834l0.064-0.027c1.285 0.756 2.83 1.203 4.48 1.203s3.195-0.447 4.522-1.226l-0.042 0.023c3.129 1.475 5.387 4.352 5.975 7.799l0.009 0.063c-0.007 0 0.983 4.067-1.351 7.827zM32.395 26.144h-8.879c0.341-1.965-0.109-4.116-0.109-4.116-0.42-2.484-1.574-4.647-3.227-6.313l0.001 0.001c0.573-0.519 1.207-0.948 1.903-1.283 2.096 1.2 4.764 1.2 6.859 0 2.32 1.12 3.99 3.267 4.429 5.836l0.007 0.047s0.812 2.756-0.983 5.827z"></path>
</symbol>
</defs>
</svg>
