<!-- Generated by IcoMoon.io -->
<svg version="1.1" xmlns="http://www.w3.org/2000/svg" width="47" height="32" viewBox="0 0 47 32">
<title>chat</title>
<path fill="#674d40" d="M35.985 13.843c0-8.362-8.812-13.843-17.61-13.843-8.836 0-17.616 5.507-17.616 13.843 0 3.153 1.382 6.237 3.889 8.684 0.068 0.068 0.11 0.163 0.11 0.267 0 0.037-0.005 0.072-0.015 0.105l0.001-0.003c-0.788 2.886-2.653 5.494-3.418 6.48-0.131 0.166-0.21 0.379-0.21 0.61 0 0.164 0.040 0.32 0.111 0.456l-0.003-0.005c0.17 0.339 0.509 0.545 0.887 0.545h0.025c3.747-0.093 8.089-1.149 10.774-3.789 0.069-0.067 0.163-0.109 0.267-0.109 0.033 0 0.064 0.004 0.095 0.012l-0.003-0.001c1.649 0.391 3.367 0.589 5.104 0.589 8.832 0 17.613-5.504 17.613-13.843zM13.581 25.789c-0.121-0.031-0.261-0.048-0.404-0.048-0.47 0-0.896 0.189-1.206 0.495l0-0c-2.684 2.64-7.068 3.239-9.142 3.373 0.947-1.309 2.487-3.712 3.212-6.359 0.039-0.137 0.062-0.294 0.062-0.457 0-0.481-0.197-0.915-0.515-1.227l-0-0c-2.279-2.223-3.485-4.893-3.485-7.724 0-6.892 7.3-12.5 16.273-12.5 8.972 0 16.272 5.609 16.272 12.502 0 6.892-7.3 12.5-16.272 12.5-1.633 0-3.247-0.186-4.794-0.553z"></path>
<path fill="#674d40" d="M40.301 24.986c3.91-1.977 6.244-5.344 6.244-9.009 0-5.181-4.684-9.607-11.135-10.527-0.028-0.004-0.061-0.007-0.095-0.007-0.37 0-0.671 0.3-0.671 0.671 0 0.337 0.249 0.616 0.572 0.664l0.004 0c5.785 0.823 9.983 4.692 9.983 9.199 0 3.149-2.060 6.068-5.508 7.812-0.544 0.279-0.91 0.837-0.91 1.48 0 0.121 0.013 0.24 0.038 0.354l-0.002-0.011c0.327 1.536 1.023 2.96 1.58 3.924-3.961-0.659-5.462-2.56-5.936-3.382-0.292-0.496-0.823-0.823-1.431-0.823-0.001 0-0.001 0-0.002 0h-0.055c-0.742 0-1.488-0.051-2.212-0.153-0.015-0.001-0.031-0.002-0.049-0.002-0.371 0-0.672 0.301-0.672 0.672 0 0.322 0.227 0.592 0.53 0.657l0.004 0.001c0.785 0.111 1.593 0.166 2.4 0.166h0.054c0.113 0 0.217 0.058 0.271 0.153 1.817 3.148 5.993 3.951 7.703 4.151 0.378 0.044 0.737-0.129 0.94-0.451 0.093-0.146 0.149-0.324 0.149-0.515 0-0.196-0.058-0.378-0.159-0.53l0.002 0.004c-0.515-0.803-1.434-2.41-1.805-4.151-0.004-0.019-0.007-0.041-0.007-0.064 0-0.123 0.070-0.229 0.172-0.281l0.002-0.001zM7.937 11.443c-1.284 0.001-2.324 1.041-2.326 2.324v0c0.002 1.284 1.042 2.324 2.326 2.324h0c1.283-0.002 2.323-1.041 2.324-2.324v-0c-0.002-1.283-1.041-2.323-2.324-2.324h-0zM7.937 14.751c-0.011 0-0.024 0.001-0.037 0.001-0.544 0-0.985-0.441-0.985-0.985s0.441-0.985 0.985-0.985c0.014 0 0.027 0 0.040 0.001l-0.002-0c0.527 0.021 0.946 0.454 0.946 0.984s-0.42 0.963-0.946 0.984l-0.002 0zM14.567 11.443c-1.283 0.002-2.323 1.041-2.324 2.324v0c0.002 1.283 1.041 2.323 2.324 2.324h0c1.283-0.002 2.323-1.041 2.324-2.324v-0c-0.002-1.283-1.041-2.323-2.324-2.324h-0zM14.567 14.751c-0.011 0-0.024 0.001-0.036 0.001-0.544 0-0.985-0.441-0.985-0.985s0.441-0.985 0.985-0.985c0.014 0 0.028 0 0.041 0.001l-0.002-0c0.527 0.022 0.945 0.454 0.945 0.984 0 0.531-0.42 0.964-0.947 0.984l-0.002 0zM21.199 11.443c-1.283 0.002-2.323 1.041-2.324 2.324v0c0.002 1.283 1.041 2.323 2.324 2.324h0c1.283-0.002 2.323-1.041 2.324-2.324v-0c-0.002-1.283-1.041-2.323-2.324-2.324h-0zM21.199 14.751c-0.011 0-0.024 0.001-0.036 0.001-0.544 0-0.985-0.441-0.985-0.985s0.441-0.985 0.985-0.985c0.014 0 0.028 0 0.041 0.001l-0.002-0c0.527 0.022 0.945 0.454 0.945 0.984 0 0.531-0.42 0.964-0.947 0.984l-0.002 0zM27.83 11.443c-1.283 0.002-2.323 1.041-2.324 2.324v0c0.002 1.283 1.041 2.323 2.324 2.324h0c1.283-0.002 2.323-1.041 2.324-2.324v-0c-0.002-1.283-1.041-2.323-2.324-2.324h-0zM27.83 14.751c-0.011 0-0.024 0.001-0.036 0.001-0.544 0-0.985-0.441-0.985-0.985s0.441-0.985 0.985-0.985c0.014 0 0.028 0 0.041 0.001l-0.002-0c0.527 0.022 0.945 0.454 0.945 0.984 0 0.531-0.42 0.964-0.947 0.984l-0.002 0z"></path>
</svg>
