<!-- Generated by IcoMoon.io -->
<svg version="1.1" xmlns="http://www.w3.org/2000/svg" width="35" height="32" viewBox="0 0 35 32">
<title>chef-hat</title>
<path fill="#674d40" d="M25.046 8.506c0 0 0 0 0 0-0.27 0-0.489-0.218-0.49-0.488v-0c-0.079-3.896-3.256-7.024-7.164-7.024s-7.085 3.128-7.164 7.017l-0 0.007c0 0.27-0.219 0.49-0.49 0.49s-0.49-0.219-0.49-0.49v0c0.060-4.451 3.683-8.037 8.143-8.037s8.083 3.585 8.143 8.031l0 0.006c-0.001 0.269-0.219 0.488-0.488 0.488h-0z"></path>
<path fill="#674d40" d="M26.474 19.581c-0.26-0.013-0.467-0.227-0.467-0.489 0-0.26 0.203-0.473 0.46-0.489l0.001-0c3.88-0.023 7.022-3.148 7.073-7.018l0-0.005c-0.039-3.895-3.206-7.037-7.106-7.037-0.019 0-0.037 0-0.056 0l0.003-0c-0.723 0-1.441 0.106-2.133 0.316-0.035 0.009-0.075 0.014-0.117 0.014-0.27 0-0.49-0.219-0.49-0.49 0-0.209 0.132-0.388 0.317-0.458l0.003-0.001c0.72-0.228 1.548-0.359 2.407-0.359 0.004 0 0.009 0 0.013 0h-0.001c0.015-0 0.034-0 0.052-0 4.441 0 8.046 3.58 8.086 8.012l0 0.004c-0.054 4.41-3.625 7.969-8.036 8.001l-0.003 0h-0.007zM8.309 19.581h-0.007c-4.412-0.033-7.983-3.591-8.037-7.995l-0-0.005c0.040-4.436 3.646-8.017 8.087-8.017 0.018 0 0.036 0 0.055 0h-0.003c0.819-0.001 1.635 0.12 2.418 0.359 0.216 0.054 0.373 0.247 0.373 0.476 0 0.27-0.219 0.49-0.49 0.49-0.061 0-0.119-0.011-0.173-0.032l0.003 0.001c-0.634-0.2-1.363-0.316-2.119-0.316-0.004 0-0.009 0-0.013 0h0.001c-0.016-0-0.035-0-0.055-0-3.901 0-7.067 3.142-7.106 7.034l-0 0.004c0.052 3.875 3.193 6.999 7.070 7.023h0.002c0.269 0.002 0.486 0.22 0.486 0.489 0 0.27-0.219 0.489-0.489 0.489-0.001 0-0.002 0-0.003 0h0z"></path>
<path fill="#674d40" d="M26.474 31.757h-18.165c-0.27 0-0.49-0.219-0.49-0.49v-12.174c-0-0.008-0.001-0.017-0.001-0.026 0-0.27 0.219-0.49 0.49-0.49s0.49 0.219 0.49 0.49c0 0.009-0 0.018-0.001 0.027l0-0.001v11.684h17.188v-11.684c0-0.27 0.219-0.489 0.489-0.489s0.489 0.219 0.489 0.489v0 12.174c0 0.27-0.219 0.49-0.49 0.49v0z"></path>
<path fill="#674d40" d="M29.881 27.014h-18.166c-0.008 0-0.017 0.001-0.026 0.001-0.27 0-0.49-0.219-0.49-0.49s0.219-0.49 0.49-0.49c0.009 0 0.018 0 0.027 0.001l-0.001-0h18.166c0.259 0.014 0.464 0.228 0.464 0.489s-0.205 0.475-0.462 0.489l-0.001 0z"></path>
</svg>
