<!-- Generated by IcoMoon.io -->
<svg version="1.1" xmlns="http://www.w3.org/2000/svg" width="32" height="32" viewBox="0 0 32 32">
<title>clock</title>
<path fill="#674d40" d="M16 0c-8.823 0-16 7.177-16 16 0 8.822 7.177 16 16 16 8.822 0 16-7.178 16-16 0-8.823-7.178-16-16-16zM16 30.934c-8.234 0-14.934-6.7-14.934-14.934s6.7-14.934 14.934-14.934 14.934 6.7 14.934 14.934-6.7 14.934-14.934 14.934z"></path>
<path fill="#674d40" d="M16.534 13.878v-5.409c0-0.295-0.239-0.534-0.534-0.534s-0.534 0.239-0.534 0.534v5.409c-0.747 0.2-1.324 0.777-1.52 1.51l-0.003 0.015h-3.809c-0.008-0-0.017-0.001-0.026-0.001-0.295 0-0.534 0.239-0.534 0.534s0.239 0.534 0.534 0.534c0.009 0 0.018-0 0.027-0.001l-0.001 0h3.809c0.238 0.918 1.066 1.6 2.057 1.6 1.178 0 2.134-0.956 2.134-2.132 0-0.992-0.684-1.819-1.6-2.058zM16 17.002c-0.589-0.001-1.066-0.478-1.066-1.068s0.478-1.068 1.068-1.068c0 0 0.001 0 0.001 0h-0c0.589 0.001 1.066 0.478 1.066 1.068s-0.478 1.068-1.068 1.068c-0 0-0.001 0-0.001 0h0zM16 5.268c0.294 0 0.534-0.238 0.534-0.532v-0.534c0-0.295-0.239-0.534-0.534-0.534s-0.534 0.239-0.534 0.534v0 0.534c0 0.294 0.239 0.532 0.534 0.532zM16 26.602c-0.295 0-0.534 0.239-0.534 0.534v0 0.532c0 0.295 0.239 0.534 0.534 0.534s0.534-0.239 0.534-0.534v-0.532c0-0 0-0.001 0-0.001 0-0.294-0.238-0.532-0.532-0.532-0 0-0.001 0-0.001 0h0zM27.734 15.402h-0.534c-0.008-0-0.017-0.001-0.026-0.001-0.295 0-0.534 0.239-0.534 0.534s0.239 0.534 0.534 0.534c0.009 0 0.018-0 0.027-0.001l-0.001 0h0.534c0.008 0 0.017 0.001 0.026 0.001 0.295 0 0.534-0.239 0.534-0.534s-0.239-0.534-0.534-0.534c-0.009 0-0.018 0-0.027 0.001l0.001-0zM4.8 15.402h-0.534c-0.294 0-0.533 0.239-0.533 0.533s0.239 0.533 0.533 0.533v0h0.534c0.008 0 0.017 0.001 0.026 0.001 0.295 0 0.534-0.239 0.534-0.534s-0.239-0.534-0.534-0.534c-0.009 0-0.018 0-0.027 0.001l0.001-0zM23.919 7.261l-0.378 0.378c-0.096 0.097-0.156 0.23-0.156 0.377 0 0.295 0.239 0.534 0.534 0.534 0.148 0 0.281-0.060 0.378-0.157v0l0.376-0.378c0.096-0.096 0.156-0.23 0.156-0.377 0-0.294-0.239-0.533-0.533-0.533-0.147 0-0.28 0.060-0.377 0.156v0zM7.703 23.478l-0.376 0.378c-0.096 0.096-0.156 0.23-0.156 0.377 0 0.294 0.239 0.533 0.533 0.533 0.147 0 0.28-0.060 0.377-0.156l0.378-0.378c0.096-0.097 0.156-0.23 0.156-0.377 0-0.295-0.239-0.534-0.534-0.534-0.147 0-0.281 0.060-0.378 0.157v0zM24.297 23.478c-0.097-0.097-0.23-0.156-0.378-0.156-0.295 0-0.534 0.239-0.534 0.534 0 0.147 0.060 0.281 0.156 0.378v0l0.378 0.376c0.096 0.097 0.23 0.158 0.378 0.158s0.281-0.060 0.378-0.158l0-0c0.097-0.096 0.157-0.23 0.157-0.378s-0.060-0.281-0.157-0.378l-0-0-0.378-0.376zM8.081 7.261c-0.097-0.097-0.23-0.156-0.378-0.156-0.295 0-0.534 0.239-0.534 0.534 0 0.147 0.060 0.281 0.156 0.378v0l0.378 0.376c0.096 0.097 0.23 0.157 0.378 0.157s0.281-0.060 0.378-0.157l0-0c0.097-0.096 0.157-0.23 0.157-0.378s-0.060-0.281-0.157-0.378l-0-0-0.378-0.376z"></path>
</svg>
