<svg aria-hidden="true" style="position: absolute; width: 0; height: 0; overflow: hidden;" version="1.1" xmlns="http://www.w3.org/2000/svg" xmlns:xlink="http://www.w3.org/1999/xlink">
<defs>
<symbol id="icon-rate-4stars" viewBox="0 0 181 32">
<path fill="#ab816c" style="fill: var(--color1, #ab816c)" d="M14.732 3.903c0.399-1.228 2.137-1.228 2.536 0l2.025 6.232c0.178 0.549 0.69 0.921 1.268 0.921h6.552c1.292 0 1.829 1.653 0.784 2.412l-5.301 3.851c-0.467 0.339-0.663 0.941-0.484 1.491l2.025 6.232c0.399 1.228-1.007 2.25-2.052 1.491l-5.301-3.851c-0.467-0.339-1.1-0.339-1.567 0l-5.301 3.851c-1.045 0.759-2.451-0.262-2.052-1.491l2.025-6.232c0.178-0.549-0.017-1.151-0.484-1.491l-5.301-3.851c-1.045-0.759-0.508-2.412 0.784-2.412h6.552c0.578 0 1.090-0.372 1.268-0.921l2.025-6.232z"></path>
<path fill="none" stroke="#ab816c" style="stroke: var(--color1, #ab816c)" stroke-linejoin="miter" stroke-linecap="butt" stroke-miterlimit="4" stroke-width="1.3333" d="M164.699 4.109c0.2-0.614 1.069-0.614 1.269 0l2.024 6.232c0.268 0.824 1.036 1.382 1.903 1.382h6.552c0.645 0 0.915 0.826 0.392 1.206l-5.301 3.851c-0.701 0.509-0.995 1.412-0.727 2.236l2.025 6.232c0.2 0.614-0.504 1.125-1.027 0.745l-5.3-3.851c-0.701-0.509-1.651-0.509-2.352 0l-5.3 3.851c-0.523 0.38-1.227-0.131-1.027-0.745l2.025-6.232c0.268-0.824-0.025-1.727-0.727-2.236l-5.301-3.851c-0.523-0.38-0.253-1.206 0.392-1.206h6.552c0.867 0 1.635-0.558 1.903-1.382l2.024-6.232z"></path>
<path fill="#ab816c" style="fill: var(--color1, #ab816c)" d="M126.732 3.903c0.399-1.228 2.137-1.228 2.536 0l2.025 6.232c0.178 0.549 0.69 0.921 1.268 0.921h6.552c1.292 0 1.828 1.653 0.784 2.412l-5.301 3.851c-0.467 0.339-0.663 0.941-0.484 1.491l2.024 6.232c0.4 1.228-1.007 2.25-2.051 1.491l-5.302-3.851c-0.467-0.339-1.1-0.339-1.567 0l-5.301 3.851c-1.045 0.759-2.451-0.262-2.052-1.491l2.025-6.232c0.179-0.549-0.017-1.151-0.484-1.491l-5.301-3.851c-1.045-0.759-0.508-2.412 0.784-2.412h6.552c0.578 0 1.090-0.372 1.268-0.921l2.025-6.232z"></path>
<path fill="#ab816c" style="fill: var(--color1, #ab816c)" d="M89.399 3.903c0.399-1.228 2.137-1.228 2.536 0l2.025 6.232c0.178 0.549 0.69 0.921 1.268 0.921h6.552c1.292 0 1.829 1.653 0.784 2.412l-5.301 3.851c-0.467 0.339-0.663 0.941-0.484 1.491l2.025 6.232c0.399 1.228-1.007 2.25-2.052 1.491l-5.301-3.851c-0.467-0.339-1.1-0.339-1.567 0l-5.301 3.851c-1.045 0.759-2.451-0.262-2.052-1.491l2.025-6.232c0.179-0.549-0.017-1.151-0.484-1.491l-5.301-3.851c-1.045-0.759-0.508-2.412 0.784-2.412h6.552c0.578 0 1.090-0.372 1.268-0.921l2.025-6.232z"></path>
<path fill="#ab816c" style="fill: var(--color1, #ab816c)" d="M52.065 3.903c0.399-1.228 2.137-1.228 2.536 0l2.025 6.232c0.178 0.549 0.69 0.921 1.268 0.921h6.552c1.292 0 1.829 1.653 0.784 2.412l-5.301 3.851c-0.467 0.339-0.663 0.941-0.484 1.491l2.025 6.232c0.399 1.228-1.007 2.25-2.052 1.491l-5.301-3.851c-0.467-0.339-1.1-0.339-1.567 0l-5.301 3.851c-1.045 0.759-2.451-0.262-2.052-1.491l2.025-6.232c0.179-0.549-0.017-1.151-0.484-1.491l-5.301-3.851c-1.045-0.759-0.508-2.412 0.784-2.412h6.552c0.578 0 1.090-0.372 1.268-0.921l2.025-6.232z"></path>
</symbol>
<symbol id="icon-rate-5stars" viewBox="0 0 181 32">
<path fill="#ab816c" style="fill: var(--color1, #ab816c)" d="M14.732 3.903c0.4-1.228 2.137-1.228 2.536 0l2.025 6.232c0.179 0.538 0.678 0.92 1.267 0.92h6.553c1.292 0 1.828 1.653 0.784 2.413l-5.301 3.851c-0.335 0.245-0.549 0.637-0.549 1.078 0 0.147 0.024 0.289 0.068 0.422l-0.003-0.009 2.024 6.232c0.4 1.229-1.007 2.251-2.051 1.491l-5.301-3.851c-0.217-0.159-0.489-0.255-0.784-0.255s-0.567 0.096-0.788 0.257l0.004-0.003-5.301 3.851c-1.044 0.76-2.451-0.263-2.051-1.491l2.024-6.232c0.041-0.123 0.065-0.265 0.065-0.412 0-0.442-0.215-0.833-0.546-1.076l-0.004-0.003-5.301-3.851c-1.044-0.76-0.507-2.413 0.784-2.413h6.552c0 0 0 0 0 0 0.589 0 1.088-0.381 1.265-0.911l0.003-0.009 2.025-6.232zM164.065 3.903c0.399-1.228 2.137-1.228 2.536 0l2.025 6.232c0.179 0.539 0.679 0.92 1.268 0.92 0 0 0 0 0 0h6.552c1.292 0 1.828 1.653 0.784 2.413l-5.301 3.851c-0.335 0.245-0.549 0.637-0.549 1.078 0 0.147 0.024 0.289 0.068 0.422l-0.003-0.009 2.024 6.232c0.4 1.229-1.007 2.251-2.051 1.491l-5.301-3.851c-0.217-0.159-0.489-0.255-0.784-0.255s-0.567 0.096-0.788 0.257l0.004-0.003-5.301 3.851c-1.044 0.76-2.451-0.263-2.051-1.491l2.024-6.232c0.041-0.123 0.065-0.265 0.065-0.412 0-0.442-0.215-0.833-0.546-1.076l-0.004-0.003-5.301-3.851c-1.044-0.76-0.508-2.413 0.784-2.413h6.552c0 0 0 0 0 0 0.589 0 1.088-0.381 1.265-0.911l0.003-0.009 2.025-6.232zM126.732 3.903c0.4-1.228 2.137-1.228 2.536 0l2.025 6.232c0.179 0.538 0.678 0.92 1.267 0.92h6.553c1.292 0 1.828 1.653 0.784 2.413l-5.301 3.851c-0.335 0.245-0.549 0.637-0.549 1.078 0 0.147 0.024 0.289 0.068 0.422l-0.003-0.009 2.024 6.232c0.4 1.229-1.007 2.251-2.051 1.491l-5.301-3.851c-0.217-0.159-0.489-0.255-0.784-0.255s-0.567 0.096-0.788 0.257l0.004-0.003-5.301 3.851c-1.044 0.76-2.451-0.263-2.051-1.491l2.024-6.232c0.041-0.123 0.065-0.265 0.065-0.412 0-0.442-0.215-0.833-0.546-1.076l-0.004-0.003-5.301-3.851c-1.045-0.76-0.507-2.413 0.784-2.413h6.552c0 0 0 0 0 0 0.589 0 1.088-0.381 1.265-0.911l0.003-0.009 2.025-6.232zM89.399 3.903c0.4-1.228 2.137-1.228 2.536 0l2.025 6.232c0.179 0.538 0.678 0.92 1.267 0.92h6.553c1.292 0 1.829 1.653 0.784 2.413l-5.301 3.851c-0.335 0.245-0.549 0.637-0.549 1.078 0 0.147 0.024 0.289 0.068 0.422l-0.003-0.009 2.024 6.232c0.4 1.229-1.007 2.251-2.051 1.491l-5.301-3.851c-0.217-0.159-0.489-0.255-0.784-0.255s-0.567 0.096-0.788 0.257l0.004-0.003-5.301 3.851c-1.044 0.76-2.451-0.263-2.051-1.491l2.024-6.232c0.041-0.123 0.065-0.265 0.065-0.412 0-0.442-0.215-0.833-0.546-1.076l-0.004-0.003-5.301-3.851c-1.044-0.76-0.507-2.413 0.784-2.413h6.552c0 0 0 0 0 0 0.589 0 1.088-0.381 1.265-0.911l0.003-0.009 2.025-6.232zM52.065 3.903c0.4-1.228 2.137-1.228 2.536 0l2.025 6.232c0.179 0.538 0.678 0.92 1.267 0.92h6.553c1.292 0 1.828 1.653 0.784 2.413l-5.301 3.851c-0.335 0.245-0.549 0.637-0.549 1.078 0 0.147 0.024 0.289 0.068 0.422l-0.003-0.009 2.024 6.232c0.4 1.229-1.007 2.251-2.051 1.491l-5.301-3.851c-0.217-0.159-0.489-0.255-0.784-0.255s-0.567 0.096-0.788 0.257l0.004-0.003-5.3 3.851c-1.045 0.76-2.452-0.263-2.053-1.491l2.027-6.232c0.041-0.123 0.065-0.264 0.065-0.411 0-0.442-0.215-0.834-0.547-1.077l-0.004-0.003-5.301-3.851c-1.045-0.76-0.507-2.413 0.784-2.413h6.552c0 0 0 0 0 0 0.589 0 1.088-0.381 1.265-0.911l0.003-0.009 2.025-6.232z"></path>
</symbol>
</defs>
</svg>
